<?xml version="1.0" encoding="UTF-8" standalone="no"?>
<!-- Created with Inkscape (http://www.inkscape.org/) -->

<svg
   xmlns:dc="http://purl.org/dc/elements/1.1/"
   xmlns:cc="http://creativecommons.org/ns#"
   xmlns:rdf="http://www.w3.org/1999/02/22-rdf-syntax-ns#"
   xmlns:svg="http://www.w3.org/2000/svg"
   xmlns="http://www.w3.org/2000/svg"
   xmlns:sodipodi="http://sodipodi.sourceforge.net/DTD/sodipodi-0.dtd"
   xmlns:inkscape="http://www.inkscape.org/namespaces/inkscape"
   width="1200px"
   height="800px"
   viewBox="0 0 1200 800"
   version="1.1"
   id="SVGRoot"
   inkscape:version="0.92.3 (2405546, 2018-03-11)"
   sodipodi:docname="AccommodationIcon.svg">
  <sodipodi:namedview
     id="base"
     pagecolor="#ffffff"
     bordercolor="#666666"
     borderopacity="1.0"
     inkscape:pageopacity="0.0"
     inkscape:pageshadow="2"
     inkscape:zoom="0.42666667"
     inkscape:cx="600"
     inkscape:cy="400"
     inkscape:document-units="px"
     inkscape:current-layer="layer1"
     showgrid="false"
     inkscape:window-width="1366"
     inkscape:window-height="706"
     inkscape:window-x="-8"
     inkscape:window-y="-8"
     inkscape:window-maximized="1" />
  <defs
     id="defs5089" />
  <metadata
     id="metadata5092">
    <rdf:RDF>
      <cc:Work
         rdf:about="">
        <dc:format>image/svg+xml</dc:format>
        <dc:type
           rdf:resource="http://purl.org/dc/dcmitype/StillImage" />
        <dc:title></dc:title>
      </cc:Work>
    </rdf:RDF>
  </metadata>
  <g
     id="layer1"
     inkscape:groupmode="layer"
     inkscape:label="Layer 1">
    <g
       id="g6916">
      <ellipse
         ry="385.54688"
         rx="405.46875"
         cy="403.70312"
         cx="603.375"
         id="path5654"
         style="opacity:0.93199978;fill:#4885ed;fill-opacity:1;stroke-width:1.02836943" />
      <path
         id="path6346"
         d="m 461.03125,402.53125 c 44.11,0 80,-35.89 80,-80 0,-44.11 -35.89,-80 -80,-80 -44.11,0 -80,35.89 -80,80 0,44.11 35.89,80 80,80 z m 352,-128 h -224 c -8.84,0 -16,7.16 -16,16 v 144 h -224 v -208 c 0,-8.84 -7.16,-16 -16,-16 h -32 c -8.84,0 -16,7.16 -16,16 v 352 c 0,8.84 7.16,16 16,16 h 32 c 8.84,0 16,-7.16 16,-16 v -48 h 512 v 48 c 0,8.84 7.16,16 16,16 h 32 c 8.84,0 16,-7.16 16,-16 v -192 c 0,-61.86 -50.14,-112 -112,-112 z"
         style="fill:#ffffff;fill-opacity:1"
         inkscape:connector-curvature="0" />
    </g>
  </g>
</svg>
