<?xml version="1.0" encoding="UTF-8" standalone="no"?>
<!-- Created with Inkscape (http://www.inkscape.org/) -->

<svg
   xmlns:dc="http://purl.org/dc/elements/1.1/"
   xmlns:cc="http://creativecommons.org/ns#"
   xmlns:rdf="http://www.w3.org/1999/02/22-rdf-syntax-ns#"
   xmlns:svg="http://www.w3.org/2000/svg"
   xmlns="http://www.w3.org/2000/svg"
   xmlns:sodipodi="http://sodipodi.sourceforge.net/DTD/sodipodi-0.dtd"
   xmlns:inkscape="http://www.inkscape.org/namespaces/inkscape"
   width="1200px"
   height="800px"
   viewBox="0 0 1200 800"
   version="1.1"
   id="SVGRoot"
   inkscape:version="0.92.3 (2405546, 2018-03-11)"
   sodipodi:docname="FoodIcon.svg">
  <sodipodi:namedview
     id="base"
     pagecolor="#ffffff"
     bordercolor="#666666"
     borderopacity="1.0"
     inkscape:pageopacity="0.0"
     inkscape:pageshadow="2"
     inkscape:zoom="0.42666667"
     inkscape:cx="600"
     inkscape:cy="400"
     inkscape:document-units="px"
     inkscape:current-layer="layer1"
     showgrid="false"
     inkscape:window-width="1366"
     inkscape:window-height="706"
     inkscape:window-x="-8"
     inkscape:window-y="-8"
     inkscape:window-maximized="1" />
  <defs
     id="defs5089" />
  <metadata
     id="metadata5092">
    <rdf:RDF>
      <cc:Work
         rdf:about="">
        <dc:format>image/svg+xml</dc:format>
        <dc:type
           rdf:resource="http://purl.org/dc/dcmitype/StillImage" />
        <dc:title></dc:title>
      </cc:Work>
    </rdf:RDF>
  </metadata>
  <g
     id="layer1"
     inkscape:groupmode="layer"
     inkscape:label="Layer 1">
    <g
       id="g8130">
      <ellipse
         ry="385.54688"
         rx="405.46875"
         cy="403.70312"
         cx="603.375"
         id="path5654"
         style="opacity:0.93199978;fill:#4885ed;fill-opacity:1;stroke-width:1.02836943" />
      <path
         id="path7554"
         d="m 595.55625,166.76321 c 0.8,4.7 16.1,94.5 16.1,128.8 0,52.3 -27.8,89.6 -68.9,104.6 l 12.9,238.1 c 0.7,13.7 -10.2,25.3 -24,25.3 h -64 c -13.7,0 -24.7,-11.5 -24,-25.3 l 12.9,-238.1 c -41.2,-15 -68.9,-52.4 -68.9,-104.6 0,-34.4 15.3,-124.1 16.1,-128.8 3.2,-20.3 45.3,-20.6 47.9,1.1 v 141.2 c 1.3,3.4 15.1,3.2 16,0 1.4,-25.3 7.9,-139.2 8,-141.8 3.3,-20.8 44.7,-20.8 47.9,0 0.2,2.7 6.6,116.5 8,141.8 0.9,3.2 14.8,3.4 16,0 v -141.2 c 2.6,-21.6 44.8,-21.4 48,-1.1 z m 119.2,285.7 -15,185.1 c -1.2,14 9.9,26 23.9,26 h 56 c 13.3,0 24,-10.7 24,-24 v -464 c 0,-13.2 -10.7,-24 -24,-24 -82.5,0 -221.4,178.5 -64.9,300.9 z"
         style="fill:#ffffff;fill-opacity:1"
         inkscape:connector-curvature="0" />
    </g>
  </g>
</svg>
