<?xml version="1.0" encoding="UTF-8" standalone="no"?>
<!-- Created with Inkscape (http://www.inkscape.org/) -->

<svg
   xmlns:dc="http://purl.org/dc/elements/1.1/"
   xmlns:cc="http://creativecommons.org/ns#"
   xmlns:rdf="http://www.w3.org/1999/02/22-rdf-syntax-ns#"
   xmlns:svg="http://www.w3.org/2000/svg"
   xmlns="http://www.w3.org/2000/svg"
   xmlns:sodipodi="http://sodipodi.sourceforge.net/DTD/sodipodi-0.dtd"
   xmlns:inkscape="http://www.inkscape.org/namespaces/inkscape"
   width="1200px"
   height="800px"
   viewBox="0 0 1200 800"
   version="1.1"
   id="SVGRoot"
   inkscape:version="0.92.3 (2405546, 2018-03-11)"
   sodipodi:docname="HelpIcon.svg">
  <sodipodi:namedview
     id="base"
     pagecolor="#ffffff"
     bordercolor="#666666"
     borderopacity="1.0"
     inkscape:pageopacity="0.0"
     inkscape:pageshadow="2"
     inkscape:zoom="0.42666667"
     inkscape:cx="600"
     inkscape:cy="400"
     inkscape:document-units="px"
     inkscape:current-layer="layer1"
     showgrid="false"
     inkscape:window-width="1366"
     inkscape:window-height="706"
     inkscape:window-x="-8"
     inkscape:window-y="-8"
     inkscape:window-maximized="1" />
  <defs
     id="defs5089" />
  <metadata
     id="metadata5092">
    <rdf:RDF>
      <cc:Work
         rdf:about="">
        <dc:format>image/svg+xml</dc:format>
        <dc:type
           rdf:resource="http://purl.org/dc/dcmitype/StillImage" />
        <dc:title></dc:title>
      </cc:Work>
    </rdf:RDF>
  </metadata>
  <g
     id="layer1"
     inkscape:groupmode="layer"
     inkscape:label="Layer 1">
    <g
       id="g5658">
      <ellipse
         ry="385.54688"
         rx="405.46875"
         cy="403.70312"
         cx="603.375"
         id="path5654"
         style="opacity:0.932;fill:#4885ed;fill-opacity:1;stroke-width:1.02836943" />
      <path
         inkscape:connector-curvature="0"
         style="fill:#ffffff;fill-opacity:1"
         id="path815"
         d="M 786.23956,433.45652 655.34311,356.18999 626.87649,404.415 c -20.1808,34.18809 -64.41544,45.58444 -98.60352,25.40364 -34.18809,-20.18079 -45.58445,-64.41543 -25.40365,-98.60352 l 61.81323,-104.71717 -75.71431,0.5945 c -22.46623,0.0925 -43.25208,12.09247 -54.63872,31.38248 l -24.04413,40.73291 -92.37784,-0.88096 c -17.64908,-0.19927 -32.17655,13.98532 -32.28971,31.68524 l -1.56201,160.0235 c -0.19927,17.64909 14.03616,32.09044 31.68525,32.28971 l 119.39148,1.15027 117.63458,69.43822 c 30.39898,17.94413 69.70344,7.81796 87.64758,-22.58102 l 13.77857,8.13332 c 15.24255,8.99748 34.82631,3.95204 43.82379,-11.29051 l 32.53328,-55.1143 6.88929,4.06666 c 11.45344,6.76082 26.10702,2.98556 32.86784,-8.46788 l 24.39996,-41.33573 c 6.76082,-11.45344 2.98555,-26.10701 -8.46789,-32.86784 z m 146.2051,42.87329 1.56201,-160.0235 c 0.19927,-17.64908 -14.03615,-32.09044 -31.68524,-32.28971 L 782.92995,282.86633 694.9193,230.91475 c -10.33393,-6.09999 -22.13784,-9.11953 -34.12418,-8.87921 l -39.47304,0.96912 c -11.04324,0.21641 -21.10156,6.23971 -26.69322,15.71248 l -64.20239,108.76462 c -11.23415,19.03166 -4.91852,43.54559 14.11314,54.77974 19.03165,11.23414 43.54558,4.91851 54.77973,-14.11314 l 44.73326,-75.78216 158.4536,93.53317 c 26.60988,15.70748 35.46587,50.08176 19.7584,76.69163 l -14.48748,24.54309 92.37783,0.88096 c 17.69992,0.11316 32.09044,-14.03615 32.28971,-31.68524 z" />
    </g>
  </g>
</svg>
