<?xml version="1.0" encoding="UTF-8" standalone="no"?>
<!-- Created with Inkscape (http://www.inkscape.org/) -->

<svg
   xmlns:dc="http://purl.org/dc/elements/1.1/"
   xmlns:cc="http://creativecommons.org/ns#"
   xmlns:rdf="http://www.w3.org/1999/02/22-rdf-syntax-ns#"
   xmlns:svg="http://www.w3.org/2000/svg"
   xmlns="http://www.w3.org/2000/svg"
   xmlns:sodipodi="http://sodipodi.sourceforge.net/DTD/sodipodi-0.dtd"
   xmlns:inkscape="http://www.inkscape.org/namespaces/inkscape"
   width="1200px"
   height="800px"
   viewBox="0 0 1200 800"
   version="1.1"
   id="SVGRoot"
   inkscape:version="0.92.3 (2405546, 2018-03-11)"
   sodipodi:docname="WashingIcon.svg">
  <sodipodi:namedview
     id="base"
     pagecolor="#ffffff"
     bordercolor="#666666"
     borderopacity="1.0"
     inkscape:pageopacity="0.0"
     inkscape:pageshadow="2"
     inkscape:zoom="0.42666667"
     inkscape:cx="600"
     inkscape:cy="400"
     inkscape:document-units="px"
     inkscape:current-layer="layer1"
     showgrid="false"
     inkscape:window-width="1366"
     inkscape:window-height="706"
     inkscape:window-x="-8"
     inkscape:window-y="-8"
     inkscape:window-maximized="1" />
  <defs
     id="defs5089" />
  <metadata
     id="metadata5092">
    <rdf:RDF>
      <cc:Work
         rdf:about="">
        <dc:format>image/svg+xml</dc:format>
        <dc:type
           rdf:resource="http://purl.org/dc/dcmitype/StillImage" />
        <dc:title></dc:title>
      </cc:Work>
    </rdf:RDF>
  </metadata>
  <g
     id="layer1"
     inkscape:groupmode="layer"
     inkscape:label="Layer 1">
    <g
       id="g8714">
      <ellipse
         ry="385.54688"
         rx="405.46875"
         cy="403.70312"
         cx="603.375"
         id="path5654"
         style="opacity:0.93199978;fill:#4885ed;fill-opacity:1;stroke-width:1.02836943" />
      <path
         id="path8144"
         d="M 754.20944,259.24941 581.67861,452.8663 c -10.22785,11.47786 -26.81945,11.47786 -37.0473,0 l -12.35637,-13.86653 c -10.22785,-11.47786 -10.22785,-30.09722 0,-41.57508 l 0.12007,-0.13474 c -37.14554,-49.25557 -38.379,-121.19736 -3.70037,-171.95963 -13.06588,-9.24843 -28.53318,-14.58925 -45.08112,-14.58925 -46.80579,0 -84.87915,42.72654 -84.87915,95.25275 V 681.125 H 328.875 V 305.99382 c 0,-95.75498 69.41184,-173.65007 154.73852,-173.65007 40.31104,0 77.07453,17.39441 104.63624,45.83793 39.18674,-14.09926 83.50378,-5.51231 116.43593,25.76087 l 0.12007,-0.13474 c 10.22785,-11.47786 26.81945,-11.47786 37.0473,0 l 12.35638,13.86652 c 10.22785,11.47786 10.22785,30.09723 0,41.57508 z m -6.17819,88.68697 c 0,10.82496 -7.81879,19.59933 -17.46484,19.59933 -9.64606,0 -17.46485,-8.77437 -17.46485,-19.59933 0,-10.82495 7.81879,-19.59933 17.46485,-19.59933 9.64605,0 17.46484,8.77438 17.46484,19.59933 z m 34.92969,0 c 0,-10.82495 7.81879,-19.59933 17.46484,-19.59933 9.64605,0 17.46484,8.77438 17.46484,19.59933 0,10.82496 -7.81879,19.59933 -17.46484,19.59933 -9.64605,0 -17.46484,-8.77437 -17.46484,-19.59933 z m 104.78906,0 c 0,10.82496 -7.81879,19.59933 -17.46484,19.59933 -9.64606,0 -17.46485,-8.77437 -17.46485,-19.59933 0,-10.82495 7.81879,-19.59933 17.46485,-19.59933 9.64605,0 17.46484,8.77438 17.46484,19.59933 z m -174.64844,39.19866 c 0,10.82496 -7.81879,19.59933 -17.46484,19.59933 -9.64605,0 -17.46485,-8.77437 -17.46485,-19.59933 0,-10.82495 7.8188,-19.59933 17.46485,-19.59933 9.64605,0 17.46484,8.77438 17.46484,19.59933 z m 52.39453,-19.59933 c 9.64606,0 17.46485,8.77438 17.46485,19.59933 0,10.82496 -7.81879,19.59933 -17.46485,19.59933 -9.64605,0 -17.46484,-8.77437 -17.46484,-19.59933 0,-10.82495 7.81879,-19.59933 17.46484,-19.59933 z m 87.32422,19.59933 c 0,10.82496 -7.81879,19.59933 -17.46484,19.59933 -9.64605,0 -17.46485,-8.77437 -17.46485,-19.59933 0,-10.82495 7.8188,-19.59933 17.46485,-19.59933 9.64605,0 17.46484,8.77438 17.46484,19.59933 z m -174.64844,39.19867 c 0,10.82495 -7.81879,19.59933 -17.46484,19.59933 -9.64605,0 -17.46484,-8.77438 -17.46484,-19.59933 0,-10.82496 7.81879,-19.59934 17.46484,-19.59934 9.64605,0 17.46484,8.77438 17.46484,19.59934 z m 34.92969,0 c 0,-10.82496 7.81879,-19.59934 17.46485,-19.59934 9.64605,0 17.46484,8.77438 17.46484,19.59934 0,10.82495 -7.81879,19.59933 -17.46484,19.59933 -9.64606,0 -17.46485,-8.77438 -17.46485,-19.59933 z m 104.78906,0 c 0,10.82495 -7.81879,19.59933 -17.46484,19.59933 -9.64605,0 -17.46484,-8.77438 -17.46484,-19.59933 0,-10.82496 7.81879,-19.59934 17.46484,-19.59934 9.64605,0 17.46484,8.77438 17.46484,19.59934 z m -139.71875,39.19866 c 0,-10.82496 7.8188,-19.59933 17.46485,-19.59933 9.64605,0 17.46484,8.77437 17.46484,19.59933 0,10.82495 -7.81879,19.59933 -17.46484,19.59933 -9.64605,0 -17.46485,-8.77438 -17.46485,-19.59933 z m 104.78907,0 c 0,10.82495 -7.81879,19.59933 -17.46485,19.59933 -9.64605,0 -17.46484,-8.77438 -17.46484,-19.59933 0,-10.82496 7.81879,-19.59933 17.46484,-19.59933 9.64606,0 17.46485,8.77437 17.46485,19.59933 z m -104.78907,39.19866 c 0,10.82495 -7.81879,19.59933 -17.46484,19.59933 -9.64605,0 -17.46484,-8.77438 -17.46484,-19.59933 0,-10.82496 7.81879,-19.59933 17.46484,-19.59933 9.64605,0 17.46484,8.77437 17.46484,19.59933 z m 69.85938,0 c 0,10.82495 -7.81879,19.59933 -17.46484,19.59933 -9.64606,0 -17.46485,-8.77438 -17.46485,-19.59933 0,-10.82496 7.81879,-19.59933 17.46485,-19.59933 9.64605,0 17.46484,8.77437 17.46484,19.59933 z m -34.92969,39.19866 c 0,10.82495 -7.81879,19.59933 -17.46484,19.59933 -9.64605,0 -17.46485,-8.77438 -17.46485,-19.59933 0,-10.82496 7.8188,-19.59933 17.46485,-19.59933 9.64605,0 17.46484,8.77437 17.46484,19.59933 z m -34.92969,39.19866 c 0,10.82495 -7.81879,19.59933 -17.46484,19.59933 -9.64605,0 -17.46484,-8.77438 -17.46484,-19.59933 0,-10.82496 7.81879,-19.59933 17.46484,-19.59933 9.64605,0 17.46484,8.77437 17.46484,19.59933 z"
         style="fill:#ffffff;stroke-width:1.15633321;fill-opacity:1"
         inkscape:connector-curvature="0" />
    </g>
  </g>
</svg>
